HIERARCHY
ROOT newVegas:Hips
{
	OFFSET 0.000000 96.479958 0.000000
	CHANNELS 6 Xposition Yposition Zposition Xrotation Yrotation Zrotation
	JOINT newVegas:Pelvis
	{
		OFFSET 0.000000 0.000000 0.000000
		CHANNELS 3 Xrotation Yrotation Zrotation
		JOINT newVegas:LeftUpLeg
		{
			OFFSET 18.735201 -5.666702 -4.541200
			CHANNELS 3 Xrotation Yrotation Zrotation
			JOINT newVegas:LeftLeg
			{
				OFFSET -0.021200 -31.938179 0.493100
				CHANNELS 3 Xrotation Yrotation Zrotation
				JOINT newVegas:LeftFoot
				{
					OFFSET 0.021200 -31.938179 -4.336299
					CHANNELS 3 Xrotation Yrotation Zrotation
					JOINT newVegas:LeftToeBase
					{
						OFFSET 0.943001 -26.722000 15.023500
						CHANNELS 3 Xrotation Yrotation Zrotation
						End Site
						{
							OFFSET 0.000000 30.670183 0.000000
						}
					}
				}
				JOINT newVegas:Left_PantLeg
				{
					OFFSET 0.663870 -9.044666 -1.108900
					CHANNELS 3 Xrotation Yrotation Zrotation
					End Site
					{
						OFFSET 1.415995 20.635357 0.000000
					}
				}
			}
		}
		JOINT newVegas:RightUpLeg
		{
			OFFSET -18.735201 -5.666702 -4.541200
			CHANNELS 3 Xrotation Yrotation Zrotation
			JOINT newVegas:RightLeg
			{
				OFFSET 0.018946 -31.938133 0.493100
				CHANNELS 3 Xrotation Yrotation Zrotation
				JOINT newVegas:RightFoot
				{
					OFFSET -0.018946 -31.938126 -4.336299
					CHANNELS 3 Xrotation Yrotation Zrotation
					JOINT newVegas:RightToeBase
					{
						OFFSET -0.943001 -26.722004 15.023500
						CHANNELS 3 Xrotation Yrotation Zrotation
						End Site
						{
							OFFSET 0.000000 30.670187 0.000000
						}
					}
				}
				JOINT newVegas:Right_PantLeg
				{
					OFFSET -0.661674 -9.044716 -1.108900
					CHANNELS 3 Xrotation Yrotation Zrotation
					End Site
					{
						OFFSET -1.415958 20.635269 0.000000
					}
				}
			}
		}
	}
	JOINT newVegas:Spine
	{
		OFFSET 0.000000 10.199997 -0.299500
		CHANNELS 3 Xrotation Yrotation Zrotation
		JOINT newVegas:Spine1
		{
			OFFSET 0.000000 11.900002 -1.516600
			CHANNELS 3 Xrotation Yrotation Zrotation
			JOINT newVegas:Spine2
			{
				OFFSET 0.000000 13.600006 -2.842500
				CHANNELS 3 Xrotation Yrotation Zrotation
				JOINT newVegas:Neck
				{
					OFFSET 0.000000 9.624100 -2.890100
					CHANNELS 3 Xrotation Yrotation Zrotation
					JOINT newVegas:Head
					{
						OFFSET 0.000000 14.068802 -1.351900
						CHANNELS 3 Xrotation Yrotation Zrotation
						JOINT newVegas:Hair_Back
						{
							OFFSET 0.000000 3.231903 -17.524799
							CHANNELS 3 Xrotation Yrotation Zrotation
							End Site
							{
								OFFSET 0.000000 19.849884 0.000000
							}
						}
						JOINT newVegas:Hair_Front
						{
							OFFSET 0.000000 31.260406 4.573800
							CHANNELS 3 Xrotation Yrotation Zrotation
							JOINT newVegas:Hair_Front1
							{
								OFFSET 0.000000 2.284103 11.993300
								CHANNELS 3 Xrotation Yrotation Zrotation
								JOINT newVegas:Hair_Front2
								{
									OFFSET 0.000000 2.284103 11.993300
									CHANNELS 3 Xrotation Yrotation Zrotation
									End Site
									{
										OFFSET 0.000000 12.208862 0.000000
									}
								}
							}
						}
						JOINT newVegas:Jowel
						{
							OFFSET 0.000000 -7.458206 6.864100
							CHANNELS 3 Xrotation Yrotation Zrotation
							End Site
							{
								OFFSET 0.000000 19.849884 0.000000
							}
						}
					}
				}
				JOINT newVegas:LeftShoulder
				{
					OFFSET 15.263000 10.923401 -0.547700
					CHANNELS 3 Xrotation Yrotation Zrotation
					JOINT newVegas:LeftArm
					{
						OFFSET 25.438599 -2.830597 -13.032500
						CHANNELS 3 Xrotation Yrotation Zrotation
						JOINT newVegas:LeftForeArm
						{
							OFFSET 29.960503 0.000000 0.000000
							CHANNELS 3 Xrotation Yrotation Zrotation
							JOINT newVegas:LeftHand
							{
								OFFSET 27.849251 0.000000 0.000000
								CHANNELS 3 Xrotation Yrotation Zrotation
								JOINT newVegas:LeftHandThumb1
								{
									OFFSET 4.487587 -3.305161 6.305391
									CHANNELS 3 Xrotation Yrotation Zrotation
									JOINT newVegas:LeftHandThumb2
									{
										OFFSET 5.480453 -3.164139 3.164143
										CHANNELS 3 Xrotation Yrotation Zrotation
										JOINT newVegas:LeftHandThumb3
										{
											OFFSET 5.159721 -2.978973 2.978967
											CHANNELS 3 Xrotation Yrotation Zrotation
											End Site
											{
												OFFSET 2.494507 5.926697 1.738678
											}
										}
									}
								}
								JOINT newVegas:LeftHandIndex1
								{
									OFFSET 18.578728 -0.527832 5.208049
									CHANNELS 3 Xrotation Yrotation Zrotation
									JOINT newVegas:LeftHandIndex2
									{
										OFFSET 3.192009 0.000000 0.000000
										CHANNELS 3 Xrotation Yrotation Zrotation
										JOINT newVegas:LeftHandIndex3
										{
											OFFSET 3.835129 0.000000 0.000000
											CHANNELS 3 Xrotation Yrotation Zrotation
											End Site
											{
												OFFSET -0.034599 3.816971 0.371180
											}
										}
									}
								}
								JOINT newVegas:LeftHandMiddle1
								{
									OFFSET 18.476105 0.000000 0.000000
									CHANNELS 3 Xrotation Yrotation Zrotation
									JOINT newVegas:LeftHandMiddle2
									{
										OFFSET 3.324875 0.000000 0.000000
										CHANNELS 3 Xrotation Yrotation Zrotation
										JOINT newVegas:LeftHandMiddle3
										{
											OFFSET 4.596550 0.000000 0.000000
											CHANNELS 3 Xrotation Yrotation Zrotation
											End Site
											{
												OFFSET 0.057701 4.578827 0.399218
											}
										}
									}
								}
								JOINT newVegas:LeftHandRing1
								{
									OFFSET 17.732719 0.121887 -4.201567
									CHANNELS 3 Xrotation Yrotation Zrotation
									JOINT newVegas:LeftHandRing2
									{
										OFFSET 2.733170 0.000000 0.000000
										CHANNELS 3 Xrotation Yrotation Zrotation
										JOINT newVegas:LeftHandRing3
										{
											OFFSET 3.178268 0.000000 0.000000
											CHANNELS 3 Xrotation Yrotation Zrotation
											End Site
											{
												OFFSET 0.119102 3.170624 0.185394
											}
										}
									}
								}
								JOINT newVegas:LeftHandPinky1
								{
									OFFSET 15.989624 -0.606689 -7.535461
									CHANNELS 3 Xrotation Yrotation Zrotation
									JOINT newVegas:LeftHandPinky2
									{
										OFFSET 2.538986 0.000000 0.000000
										CHANNELS 3 Xrotation Yrotation Zrotation
										JOINT newVegas:LeftHandPinky3
										{
											OFFSET 2.593102 0.000000 0.000000
											CHANNELS 3 Xrotation Yrotation Zrotation
											End Site
											{
												OFFSET -0.150902 2.584198 0.152708
											}
										}
									}
								}
							}
							JOINT newVegas:Left_Sleeve
							{
								OFFSET 0.267448 -0.649796 0.577675
								CHANNELS 3 Xrotation Yrotation Zrotation
								End Site
								{
									OFFSET 0.000000 15.991241 0.000000
								}
							}
							JOINT newVegas:Left_CapeC
							{
								OFFSET 15.715958 -8.608795 -6.935905
								CHANNELS 3 Xrotation Yrotation Zrotation
								JOINT newVegas:Left_CapeC1
								{
									OFFSET 0.000000 -8.688499 0.000000
									CHANNELS 3 Xrotation Yrotation Zrotation
									End Site
									{
										OFFSET 0.000000 8.688499 0.000000
									}
								}
							}
						}
						JOINT newVegas:Left_CapeB
						{
							OFFSET 26.118385 -8.608795 -7.079235
							CHANNELS 3 Xrotation Yrotation Zrotation
							JOINT newVegas:Left_CapeB1
							{
								OFFSET 0.000000 -8.688499 0.000000
								CHANNELS 3 Xrotation Yrotation Zrotation
								End Site
								{
									OFFSET 0.000000 8.688499 0.000000
								}
							}
						}
						JOINT newVegas:Left_CapeA
						{
							OFFSET 5.115639 -8.608795 -10.395809
							CHANNELS 3 Xrotation Yrotation Zrotation
							JOINT newVegas:Left_CapeA1
							{
								OFFSET 0.000000 -8.688499 0.000000
								CHANNELS 3 Xrotation Yrotation Zrotation
								End Site
								{
									OFFSET 0.000000 8.688499 0.000000
								}
							}
						}
					}
				}
				JOINT newVegas:RightShoulder
				{
					OFFSET -15.263000 10.923401 -0.547700
					CHANNELS 3 Xrotation Yrotation Zrotation
					JOINT newVegas:RightArm
					{
						OFFSET -25.438599 -2.830597 -13.032500
						CHANNELS 3 Xrotation Yrotation Zrotation
						JOINT newVegas:RightForeArm
						{
							OFFSET -29.960503 0.000000 0.000000
							CHANNELS 3 Xrotation Yrotation Zrotation
							JOINT newVegas:RightHand
							{
								OFFSET -27.849251 0.000000 0.000000
								CHANNELS 3 Xrotation Yrotation Zrotation
								JOINT newVegas:RightHandThumb1
								{
									OFFSET -4.487587 -3.305161 6.305391
									CHANNELS 3 Xrotation Yrotation Zrotation
									JOINT newVegas:RightHandThumb2
									{
										OFFSET -5.480453 -3.164139 3.164143
										CHANNELS 3 Xrotation Yrotation Zrotation
										JOINT newVegas:RightHandThumb3
										{
											OFFSET -5.159721 -2.978973 2.978967
											CHANNELS 3 Xrotation Yrotation Zrotation
											End Site
											{
												OFFSET -2.494507 5.926697 1.738678
											}
										}
									}
								}
								JOINT newVegas:RightHandIndex1
								{
									OFFSET -18.578728 -0.527832 5.208049
									CHANNELS 3 Xrotation Yrotation Zrotation
									JOINT newVegas:RightHandIndex2
									{
										OFFSET -3.192009 0.000000 0.000000
										CHANNELS 3 Xrotation Yrotation Zrotation
										JOINT newVegas:RightHandIndex3
										{
											OFFSET -3.835129 0.000000 0.000000
											CHANNELS 3 Xrotation Yrotation Zrotation
											End Site
											{
												OFFSET 0.034599 3.816971 0.371180
											}
										}
									}
								}
								JOINT newVegas:RightHandMiddle1
								{
									OFFSET -18.476105 0.000000 0.000000
									CHANNELS 3 Xrotation Yrotation Zrotation
									JOINT newVegas:RightHandMiddle2
									{
										OFFSET -3.324875 0.000000 0.000000
										CHANNELS 3 Xrotation Yrotation Zrotation
										JOINT newVegas:RightHandMiddle3
										{
											OFFSET -4.596550 0.000000 0.000000
											CHANNELS 3 Xrotation Yrotation Zrotation
											End Site
											{
												OFFSET -0.057701 4.578827 0.399218
											}
										}
									}
								}
								JOINT newVegas:RightHandRing1
								{
									OFFSET -17.732719 0.121887 -4.201567
									CHANNELS 3 Xrotation Yrotation Zrotation
									JOINT newVegas:RightHandRing2
									{
										OFFSET -2.733170 0.000000 0.000000
										CHANNELS 3 Xrotation Yrotation Zrotation
										JOINT newVegas:RightHandRing3
										{
											OFFSET -3.178268 0.000000 0.000000
											CHANNELS 3 Xrotation Yrotation Zrotation
											End Site
											{
												OFFSET -0.119102 3.170624 0.185394
											}
										}
									}
								}
								JOINT newVegas:RightHandPinky1
								{
									OFFSET -15.989624 -0.606689 -7.535461
									CHANNELS 3 Xrotation Yrotation Zrotation
									JOINT newVegas:RightHandPinky2
									{
										OFFSET -2.538986 0.000000 0.000000
										CHANNELS 3 Xrotation Yrotation Zrotation
										JOINT newVegas:RightHandPinky3
										{
											OFFSET -2.593102 0.000000 0.000000
											CHANNELS 3 Xrotation Yrotation Zrotation
											End Site
											{
												OFFSET 0.150902 2.584198 0.152708
											}
										}
									}
								}
							}
							JOINT newVegas:Right_CapeC
							{
								OFFSET -15.715958 -8.608795 -6.935905
								CHANNELS 3 Xrotation Yrotation Zrotation
								JOINT newVegas:Right_CapeC1
								{
									OFFSET 0.000000 -8.688499 0.000000
									CHANNELS 3 Xrotation Yrotation Zrotation
									End Site
									{
										OFFSET 0.000000 8.688499 0.000000
									}
								}
							}
							JOINT newVegas:Right_Sleeve
							{
								OFFSET -0.267448 -0.649994 0.577675
								CHANNELS 3 Xrotation Yrotation Zrotation
								End Site
								{
									OFFSET 0.000000 15.991302 0.000000
								}
							}
						}
						JOINT newVegas:Right_CapeA
						{
							OFFSET -5.115540 -8.608795 -10.395824
							CHANNELS 3 Xrotation Yrotation Zrotation
							JOINT newVegas:Right_CapeA1
							{
								OFFSET 0.000000 -8.688499 0.000000
								CHANNELS 3 Xrotation Yrotation Zrotation
								End Site
								{
									OFFSET 0.000000 8.688499 0.000000
								}
							}
						}
						JOINT newVegas:Right_CapeB
						{
							OFFSET -26.118187 -8.608795 -7.079266
							CHANNELS 3 Xrotation Yrotation Zrotation
							JOINT newVegas:Right_CapeB1
							{
								OFFSET 0.000000 -8.688499 0.000000
								CHANNELS 3 Xrotation Yrotation Zrotation
								End Site
								{
									OFFSET 0.000000 8.688499 0.000000
								}
							}
						}
					}
				}
				JOINT newVegas:Left_Collar
				{
					OFFSET 18.625099 8.655502 8.828100
					CHANNELS 3 Xrotation Yrotation Zrotation
					JOINT newVegas:Left_Collar1
					{
						OFFSET 14.783401 10.540405 -1.259500
						CHANNELS 3 Xrotation Yrotation Zrotation
						End Site
						{
							OFFSET 0.000000 18.199875 0.000000
						}
					}
				}
				JOINT newVegas:Collar_Back
				{
					OFFSET 0.000000 15.630707 -20.132601
					CHANNELS 3 Xrotation Yrotation Zrotation
					End Site
					{
						OFFSET 0.000000 22.523010 0.000000
					}
				}
				JOINT newVegas:Left_Peck
				{
					OFFSET 17.239599 -5.132599 25.482599
					CHANNELS 3 Xrotation Yrotation Zrotation
					End Site
					{
						OFFSET 0.000000 22.523010 0.000000
					}
				}
				JOINT newVegas:Right_Peck
				{
					OFFSET -17.239599 -5.132202 25.482599
					CHANNELS 3 Xrotation Yrotation Zrotation
					End Site
					{
						OFFSET 0.000000 22.523010 0.000000
					}
				}
				JOINT newVegas:Right_Collar
				{
					OFFSET -18.625099 8.655792 8.828100
					CHANNELS 3 Xrotation Yrotation Zrotation
					JOINT newVegas:Right_Collar1
					{
						OFFSET -14.783401 10.539993 -1.259500
						CHANNELS 3 Xrotation Yrotation Zrotation
						End Site
						{
							OFFSET 0.000000 18.199631 0.000000
						}
					}
				}
			}
		}
		JOINT newVegas:Belly
		{
			OFFSET 0.000000 -6.540398 9.014299
			CHANNELS 3 Xrotation Yrotation Zrotation
			End Site
			{
				OFFSET 0.000000 11.566666 0.000000
			}
		}
	}
	JOINT newVegas:ElvisFacialAnim_Joint
	{
		OFFSET 1.000000 -95.330101 -8.825800
		CHANNELS 3 Xrotation Yrotation Zrotation
		End Site
		{
			OFFSET 0.000000 35.315800 0.000000
		}
	}
}
MOTION
Frames: 4
Frame Time: 0.033333
-3.139071 77.429260 1.175646 15.476611 -53.348214 11.977602 -0.000000 -0.000000 -0.000000 -73.243206 15.002471 48.927555 52.649871 -16.453659 4.652909 5.962190 0.377877 -16.562068 -0.000000 -0.000002 -0.000000 0.000001 -0.000001 0.000000 -30.507460 -17.300610 -44.093837 42.361287 2.710209 -4.944026 -13.494326 -7.755833 39.630229 0.000000 0.000000 0.000000 0.000001 0.000000 -0.000000 7.424889 3.354726 -3.370314 1.209176 1.420673 2.325054 0.209265 1.298830 1.049736 -0.390604 1.953733 -0.338256 -0.390587 1.953736 -0.338251 -0.000001 0.000002 0.000001 -0.390525 1.953719 -0.338254 -0.390669 1.953770 -0.338256 0.000002 -0.000001 -0.000000 -0.000001 0.000002 -0.000000 -2.416907 -9.914478 -4.105218 -4.668988 -14.995293 -46.826954 -96.668084 -58.172769 -94.771723 0.027032 -0.377064 -3.261905 4.766488 -0.870674 -14.442457 15.732308 12.674844 8.828578 -0.000000 -0.000000 -0.000003 -3.610955 -7.817611 -81.262661 0.005173 -4.388516 -67.459067 -0.000000 0.000000 -0.000001 -5.483689 2.419539 -86.651024 -0.068366 -4.897316 -76.605503 -0.000001 -0.000002 -0.000002 -4.480814 3.914172 -90.412525 -1.097242 -0.675670 -62.310716 0.000001 -0.000001 -0.000001 -8.868639 8.263670 -85.753886 -0.047922 -0.066906 -74.105661 0.000001 -0.000001 -0.000003 -0.000000 0.000000 -0.000000 -0.000000 0.000000 -0.000000 -0.000000 0.000000 -0.000000 0.000001 -0.000001 0.000001 0.000001 -0.000001 -0.000002 0.000001 -0.000001 0.000001 0.000000 -0.000001 0.000001 -7.387817 -19.317428 2.804087 3.089092 2.300701 51.805117 -16.213863 73.879411 16.738429 -2.716611 27.655250 10.524492 24.918366 -21.323357 30.343047 9.041930 8.262084 -18.001809 -0.000001 -0.000002 -0.000001 -0.070689 -3.035213 61.424212 0.006470 4.395139 66.609207 -0.000001 -0.000002 -0.000002 -1.235407 -0.119460 68.274277 -0.077307 4.902854 84.501891 0.000002 -0.000000 0.000001 0.883176 -4.613443 79.192949 -0.717760 1.136505 73.255766 -0.000003 -0.000001 0.000001 -3.944525 0.099976 86.764788 -0.029799 0.060159 54.415147 0.000001 -0.000000 -0.000001 -0.000002 0.000002 -0.000003 -0.000002 0.000002 -0.000003 -0.000002 0.000002 -0.000002 -0.000001 0.000000 -0.000000 -0.000001 0.000000 -0.000002 -0.000001 0.000000 -0.000000 -0.000000 -0.000000 -0.000000 0.000002 0.000002 -0.000001 0.000002 0.000002 -0.000001 0.000002 0.000002 -0.000001 0.000002 0.000002 -0.000001 0.000002 0.000002 -0.000001 0.000002 0.000002 -0.000001 0.000002 0.000002 -0.000001 -0.000000 0.000001 -0.000000 -0.000000 -0.000000 -0.000000 
-2.817581 77.449768 0.723218 16.735893 -53.661938 14.324676 -0.000000 0.000002 -0.000001 -72.643836 16.600271 47.948601 50.789498 -15.394893 4.554801 6.781884 0.257780 -16.888534 -0.000000 -0.000000 0.000000 -0.000000 -0.000001 0.000001 -32.891725 -15.265667 -45.305864 44.333443 2.824033 -5.135413 -13.732658 -7.739862 39.690998 0.000000 -0.000000 -0.000000 0.000002 0.000001 0.000001 7.208163 3.075203 -2.101174 0.586627 1.288481 2.145127 -0.251796 1.199158 1.000944 -0.473502 1.998315 -0.376549 -0.473504 1.998298 -0.376548 -0.000001 0.000000 0.000000 -0.473507 1.998283 -0.376544 -0.473501 1.998319 -0.376551 0.000001 0.000001 0.000000 -0.000001 0.000000 0.000001 -1.687380 -9.299341 -3.414013 -11.818915 -13.247738 -44.921529 -72.750134 -59.509232 -67.744740 1.022838 -1.880707 -3.976847 4.766486 -0.870672 -14.442464 15.732313 12.674839 8.828573 -0.000002 -0.000002 -0.000003 -3.610955 -7.817612 -81.262667 0.005172 -4.388514 -67.459067 0.000001 0.000000 0.000002 -5.483691 2.419539 -86.651024 -0.068366 -4.897316 -76.605510 0.000001 -0.000000 -0.000001 -4.480812 3.914173 -90.412519 -1.097241 -0.675672 -62.310709 -0.000001 -0.000002 0.000001 -8.868643 8.263672 -85.753886 -0.047922 -0.066904 -74.105661 -0.000000 -0.000005 -0.000003 0.000001 0.000000 -0.000001 0.000001 0.000000 -0.000001 0.000001 0.000000 -0.000001 0.000001 -0.000001 -0.000002 0.000001 -0.000000 -0.000002 0.000001 -0.000001 -0.000002 0.000000 0.000000 -0.000002 -7.249155 -14.303636 0.078486 -0.697074 -0.315289 49.429290 -66.378230 67.972704 66.086438 2.940518 14.571579 10.923623 24.918366 -21.323354 30.343047 9.041928 8.262085 -18.001804 0.000002 -0.000003 -0.000001 -0.070692 -3.035212 61.424212 0.006469 4.395135 66.609200 -0.000002 -0.000000 -0.000002 -1.235405 -0.119460 68.274277 -0.077308 4.902856 84.501891 0.000000 0.000001 -0.000001 0.883176 -4.613439 79.192949 -0.717761 1.136501 73.255773 0.000000 0.000001 0.000001 -3.944524 0.099981 86.764788 -0.029799 0.060159 54.415147 0.000001 -0.000000 -0.000001 -0.000002 0.000000 0.000001 -0.000000 0.000001 0.000002 -0.000002 -0.000000 -0.000000 0.000001 0.000001 0.000000 0.000001 0.000002 -0.000002 0.000001 0.000001 0.000000 0.000002 0.000002 -0.000000 0.000001 0.000000 0.000000 0.000001 0.000000 0.000000 0.000001 0.000000 0.000000 0.000001 0.000000 0.000000 0.000001 0.000000 0.000000 0.000001 0.000000 0.000000 0.000001 0.000000 0.000000 0.000001 0.000000 0.000001 -0.000000 0.000002 -0.000001 
-2.362396 77.413818 0.754067 18.055308 -53.818817 16.781595 -0.000000 -0.000000 0.000000 -72.274159 18.152500 46.654970 49.992675 -14.272756 4.580292 6.824993 0.249897 -16.859627 0.000000 0.000002 -0.000000 -0.000000 0.000000 -0.000000 -34.889938 -13.567798 -46.994601 45.071230 2.918342 -5.261988 -13.169902 -7.405364 40.394514 0.000000 -0.000000 0.000000 0.000001 -0.000000 -0.000001 7.419821 2.098926 -0.848978 -0.311961 0.937682 1.681152 -0.879317 0.911894 0.736944 -0.563399 2.046047 -0.418110 -0.563400 2.046046 -0.418102 0.000001 0.000002 -0.000002 -0.563467 2.046057 -0.418113 -0.563322 2.046059 -0.418112 -0.000001 -0.000001 0.000001 0.000001 0.000002 -0.000002 -0.924459 -8.510139 -2.730281 -19.847123 -10.103208 -40.822839 -50.754511 -50.797135 -41.482167 1.178229 -7.523861 -9.087913 4.766484 -0.870674 -14.442462 15.732309 12.674839 8.828574 0.000000 0.000000 -0.000004 -3.610955 -7.817608 -81.262667 0.005172 -4.388514 -67.459067 -0.000001 -0.000002 0.000001 -5.483693 2.419540 -86.651024 -0.068367 -4.897316 -76.605510 0.000001 0.000000 -0.000001 -4.480816 3.914175 -90.412525 -1.097245 -0.675668 -62.310716 -0.000001 -0.000000 -0.000002 -8.868639 8.263671 -85.753879 -0.047917 -0.066903 -74.105661 0.000000 -0.000003 0.000000 -0.000001 0.000002 0.000003 -0.000001 0.000002 0.000003 -0.000002 0.000002 0.000003 -0.000001 -0.000002 0.000002 -0.000000 -0.000002 -0.000001 -0.000001 -0.000002 0.000002 -0.000001 -0.000002 0.000002 -6.178074 -9.433475 -2.335085 -5.892000 -1.101434 46.246231 -83.303241 63.969066 83.428391 5.675292 2.962906 4.253298 24.918367 -21.323361 30.343051 9.041924 8.262087 -18.001807 0.000001 -0.000004 0.000004 -0.070689 -3.035212 61.424212 0.006468 4.395137 66.609200 0.000002 -0.000001 -0.000000 -1.235405 -0.119460 68.274277 -0.077308 4.902854 84.501891 0.000000 0.000000 -0.000000 0.883176 -4.613444 79.192949 -0.717763 1.136506 73.255773 -0.000001 0.000001 -0.000000 -3.944527 0.099980 86.764781 -0.029799 0.060153 54.415147 0.000001 -0.000000 0.000002 0.000000 0.000002 0.000003 0.000000 0.000001 0.000001 0.000000 0.000002 0.000003 -0.000002 0.000001 0.000003 -0.000002 0.000001 0.000002 -0.000002 0.000001 0.000003 -0.000001 0.000001 0.000004 -0.000000 -0.000002 0.000002 -0.000000 -0.000002 0.000002 -0.000000 -0.000002 0.000002 -0.000000 -0.000002 0.000002 -0.000000 -0.000002 0.000002 -0.000000 -0.000002 0.000002 -0.000000 -0.000002 0.000002 0.000001 -0.000002 -0.000000 -0.000000 -0.000000 0.000000 
-1.792013 77.254898 1.144701 19.381961 -54.009902 19.222790 -0.000001 -0.000001 0.000000 -71.341824 18.423645 44.988923 49.862256 -12.643433 4.362966 7.142132 0.009785 -17.379708 0.000000 -0.000001 -0.000000 -0.000001 -0.000001 0.000002 -36.669271 -11.957429 -48.970920 45.106200 3.168277 -5.337142 -12.083937 -6.901973 41.479548 0.000000 -0.000000 0.000000 0.000000 0.000000 -0.000002 8.123868 0.651860 0.372093 -0.617583 0.437852 1.046700 -0.962096 0.469520 0.215059 -0.715723 2.122846 -0.486346 -0.715720 2.122833 -0.486324 -0.000001 0.000000 -0.000000 -0.715696 2.122976 -0.486387 -0.715584 2.122722 -0.486341 -0.000000 -0.000001 -0.000000 -0.000001 0.000000 -0.000000 -0.203982 -7.785653 -2.069219 -27.885052 -7.115394 -36.429879 -39.794550 -37.982405 -25.624664 0.144572 -13.426150 -14.633465 4.766485 -0.870673 -14.442462 15.732301 12.674839 8.828573 0.000002 -0.000002 -0.000005 -3.610952 -7.817611 -81.262661 0.005172 -4.388516 -67.459067 -0.000000 0.000000 -0.000000 -5.483687 2.419539 -86.651024 -0.068362 -4.897318 -76.605510 -0.000002 0.000002 -0.000003 -4.480812 3.914172 -90.412519 -1.097244 -0.675668 -62.310723 0.000002 -0.000001 0.000002 -8.868635 8.263668 -85.753892 -0.047915 -0.066905 -74.105661 0.000000 -0.000003 -0.000000 0.000001 0.000002 -0.000000 0.000001 0.000002 -0.000000 0.000001 0.000001 -0.000000 -0.000001 0.000000 -0.000003 -0.000001 -0.000000 -0.000002 -0.000001 0.000000 -0.000003 -0.000001 0.000000 -0.000002 -4.362920 -4.954398 -4.956205 -9.821763 -0.357053 41.855754 -91.774089 61.799354 92.053294 5.230838 -3.739064 0.278213 24.918367 -21.323359 30.343051 9.041929 8.262085 -18.001800 0.000001 -0.000006 0.000000 -0.070692 -3.035210 61.424205 0.006468 4.395137 66.609200 -0.000001 0.000000 -0.000001 -1.235402 -0.119459 68.274284 -0.077309 4.902854 84.501891 0.000001 0.000001 -0.000000 0.883174 -4.613443 79.192949 -0.717763 1.136503 73.255766 -0.000002 -0.000001 0.000000 -3.944525 0.099979 86.764788 -0.029801 0.060157 54.415144 -0.000001 0.000003 0.000001 -0.000001 0.000001 0.000003 -0.000001 -0.000000 0.000001 -0.000001 0.000002 0.000002 -0.000001 0.000000 -0.000001 -0.000001 0.000000 -0.000001 -0.000001 0.000000 -0.000001 -0.000000 -0.000000 0.000001 0.000001 0.000001 -0.000000 0.000001 0.000001 -0.000000 0.000001 0.000001 -0.000000 0.000001 0.000001 -0.000000 0.000001 0.000001 -0.000000 0.000001 0.000001 -0.000000 0.000001 0.000001 -0.000000 0.000001 -0.000000 -0.000000 -0.000001 -0.000001 0.000000 
